# xmcd
# Track frame offsets:
# 150
# 12174
# 36504
# 50720
# 75624
# 89012
# 103152
# 115113
# 130082
# 143131
# 161223
# 180766
# 193670
# 214497
# 226074
# 238461
# 252415
# 269110
# 281285
# 303154
# 321330
#
# Disc length: 4492 seconds
# Revision: 0
# Processed by: cddbd v1.5.2PL0 Copyright (c) Steve Scherf et al.
# Submitted via: VisiTrax 2.10.3.257 - For more info visit www.synapsa.com
#
DISCID=38118a15
DTITLE=Emmylou Harris - Songbird - Rare Tracks And Forgotten Gems - Disc 3
DYEAR=2007
DGENRE=Country
TTITLE0=Falling In A Deep Hole
TTITLE1=1917 (with Linda Ronstadt)
TTITLE2=Palms Of Victory (with Dolly Parton and Linda Ronstadt)
TTITLE3=Softly And Tenderly (with Dolly Parton and Linda Ronstadt)
TTITLE4=My Dear Companion (with Dolly Parton and Linda Ronstadt)
TTITLE5=Mary Danced With Soldiers (with Nitty Gritty Dirt Band)
TTITLE6=I Don't Believe You Much Do I (with Guy Clark)
TTITLE7=All I Left Behind
TTITLE8=I Remember You (with Steve Earle)
TTITLE9=Golden ring (with Linda Ronstadt, Kate and Anna McGarrigle)
TTITLE10=Sonny (with Dolores keane and Mary Black)
TTITLE11=In The Garden
TTITLE12=Love Still Remains
TTITLE13=Snake Song
TTITLE14=Hobo's Lullaby
TTITLE15=Wondering
TTITLE16=Immigrant Eyes
TTITLE17=Juanita (with Sheryl Crow)
TTITLE18=She (with The Pretenders)
TTITLE19=Sin City (with Beck)
TTITLE20=Wheels (with The Seldom Scene)
EXTD=
EXTT0=
EXTT1=
EXTT2=
EXTT3=
EXTT4=
EXTT5=
EXTT6=
EXTT7=
EXTT8=
EXTT9=
EXTT10=
EXTT11=
EXTT12=
EXTT13=
EXTT14=
EXTT15=
EXTT16=
EXTT17=
EXTT18=
EXTT19=
EXTT20=
PLAYORDER=
